<svg width="58" height="60" viewBox="0 0 58 60" fill="none" xmlns="http://www.w3.org/2000/svg">
<g clip-path="url(#clip0_7_67)">
<path d="M3.61 2.58837L36.81 0.136401C40.888 -0.213595 41.936 0.0224021 44.5 1.88638L55.098 9.35229C56.846 10.6363 57.428 10.9863 57.428 12.3843V53.3298C57.428 55.8958 56.496 57.4137 53.234 57.6457L14.68 59.9797C12.232 60.0957 11.066 59.7457 9.784 58.1117L1.98 47.9638C0.58 46.0959 0 44.6979 0 43.0639V6.66833C0 4.57035 0.932 2.82037 3.61 2.58837Z" fill="white"/>
<path fill-rule="evenodd" clip-rule="evenodd" d="M36.81 0.136401L3.61 2.58837C0.932 2.82037 0 4.57035 0 6.66833V43.0639C0 44.6979 0.58 46.0959 1.98 47.9638L9.784 58.1117C11.066 59.7457 12.232 60.0957 14.68 59.9797L53.234 57.6457C56.494 57.4137 57.428 55.8958 57.428 53.3298V12.3843C57.428 11.0583 56.904 10.6763 55.362 9.54429C55.2733 9.48038 55.1846 9.41638 55.096 9.35229L44.5 1.88638C41.936 0.0224021 40.888 -0.213595 36.81 0.136401ZM15.552 11.7143C12.404 11.9263 11.69 11.9743 9.902 10.5203L5.356 6.90432C4.894 6.43633 5.126 5.85233 6.29 5.73634L38.206 3.40436C40.886 3.17037 42.282 4.10436 43.33 4.92035L48.804 8.8863C49.038 9.0043 49.62 9.70229 48.92 9.70229L15.96 11.6863L15.552 11.7143ZM11.882 52.9798V18.2202C11.882 16.7022 12.348 16.0022 13.744 15.8842L51.6 13.6682C52.884 13.5522 53.464 14.3682 53.464 15.8842V50.4118C53.464 51.9298 53.23 53.2138 51.134 53.3298L14.908 55.4298C12.812 55.5458 11.882 54.8478 11.882 52.9798ZM47.642 20.0842C47.874 21.1342 47.642 22.1841 46.592 22.3041L44.846 22.6501V48.3138C43.33 49.1298 41.934 49.5958 40.768 49.5958C38.904 49.5958 38.438 49.0118 37.042 47.2639L25.624 29.3001V46.6799L29.236 47.4979C29.236 47.4979 29.236 49.5978 26.322 49.5978L18.288 50.0638C18.054 49.5958 18.288 48.4298 19.102 48.1978L21.2 47.6159V24.6361L18.288 24.4001C18.054 23.3501 18.636 21.8341 20.268 21.7162L28.888 21.1362L40.768 39.3319V23.2341L37.74 22.8861C37.506 21.6002 38.438 20.6662 39.602 20.5522L47.642 20.0842Z" fill="black"/>
</g>
<defs>
<clipPath id="clip0_7_67">
<rect width="58" height="60" fill="white"/>
</clipPath>
</defs>
</svg>
