<svg width="78" height="35" viewBox="0 0 78 35" fill="none" xmlns="http://www.w3.org/2000/svg">
<path d="M14.628 20.9607H18.8411L12.1159 2.8H6.77757L0 20.9607H4.13458L5.70467 16.4598H13.0841L14.628 20.9607ZM6.85607 13.1626L9.26355 6.28037H9.57757L11.9327 13.1626H6.85607Z" fill="#260126"/>
<path d="M20.8982 20.9607H24.8757V2.8H20.8982V20.9607Z" fill="#260126"/>
<path d="M41.3529 19.8093V16.7215H49.9361V6.77757H41.3529V4.23925H50.6165V1.0729H38.0296V18.5271C37.0875 17.2449 35.8576 15.7271 34.8109 14.4972C34.9155 13.9738 34.9941 13.4505 35.0726 12.9271H37.48V9.76074H35.2034V6.09719H37.2969V3.03551H32.8221C33.0314 2.27663 33.1884 1.46542 33.3716 0.601869L30.467 0.0523373C30.0483 2.59065 28.9754 5.73084 27.7193 8.03364L30.5193 9.08037C31.0427 7.95514 31.4613 7.01308 31.8539 6.09719H32.1156V9.76074H28.2427V12.9271H32.0109C31.5922 16.172 30.0744 18.7888 27.3529 21.4056L29.8389 23.8392C31.5922 21.9813 32.8483 20.071 33.7118 18.0037C34.6277 19.1551 35.4912 20.4112 36.0931 21.2748L38.0296 19.3645V22.9757H51.0613V19.8093H41.3529ZM46.7436 9.89159V13.6075H41.3529V9.89159H46.7436Z" fill="#260126"/>
<path d="M77.1347 16.0149H71.8749V13.5028H76.0356V10.3888H71.8749V6.90841L68.787 6.7514V10.3888H66.7982C67.3478 9.5514 68.1067 7.85046 68.8132 5.96635H76.4543V2.8H69.9384C70.2263 1.96262 70.4618 1.1514 70.645 0.44486L67.4263 0C67.2169 0.837383 66.9552 1.77944 66.6151 2.8H63.3964V5.96635H65.4898C64.731 7.85046 63.9197 9.60373 63.2132 10.6766V13.5028H68.787V16.0149H63.2132V19.129H68.787V23.4729H71.8749V19.129H77.1347V16.0149ZM54.8917 23.342H57.6655V4.05607H59.9422C59.445 6.07103 58.8431 8.13831 58.0842 10.2056C59.5496 12.1682 59.8898 13.686 59.8898 15.0206C59.8898 16.2505 59.4711 16.5383 58.5553 16.7215L57.7702 16.8523L58.7646 19.8878L59.4973 19.7832C62.402 19.3645 62.716 18.6056 62.716 15.6486C62.716 13.5028 62.2188 11.8804 60.8842 9.5514C61.6169 7.69346 62.2188 5.94019 62.7422 4.08224V0.994393H54.8917V23.342Z" fill="#260126"/>
<path d="M17.5106 35C18.4723 35 18.9989 34.5993 19.2851 34.1642V34.8626H21.2772V30.9815C21.2772 29.3902 20.2239 28.7147 18.5753 28.7147C16.9382 28.7147 15.8048 29.4245 15.7132 30.867H17.6365C17.6823 30.4892 17.8884 30.1572 18.4494 30.1572C19.1019 30.1572 19.2393 30.535 19.2393 31.1075V31.2448H18.6669C16.6748 31.2448 15.4842 31.7944 15.4842 33.2026C15.4842 34.4734 16.4344 35 17.5106 35ZM18.2204 33.6147C17.7396 33.6147 17.5106 33.3972 17.5106 33.0537C17.5106 32.5614 17.8769 32.4012 18.7012 32.4012H19.2393V32.7675C19.2393 33.2827 18.8043 33.6147 18.2204 33.6147Z" fill="#20B687"/>
<path d="M22.5036 34.8626H24.5529V28.875H22.5036V34.8626ZM23.5225 28.3026C24.1637 28.3026 24.6559 27.8561 24.6559 27.2493C24.6559 26.6425 24.1637 26.1846 23.5225 26.1846C22.8814 26.1846 22.4006 26.6425 22.4006 27.2493C22.4006 27.8561 22.8814 28.3026 23.5225 28.3026Z" fill="#20B687"/>
<path d="M25.342 34.8626H27.4371L28.5247 33.0766L29.5894 34.8626H31.9478L29.8756 31.657L31.7646 28.875H29.6581L28.7536 30.4549L27.8263 28.875H25.4679L27.334 31.8173L25.342 34.8626Z" fill="#20B687"/>
<path d="M32.6875 34.8626H34.7368V32.0234C34.7368 31.0617 35.4237 30.6724 36.6716 30.7068V28.7948C35.7443 28.7834 35.1146 29.1727 34.7368 30.0656V28.875H32.6875V34.8626Z" fill="#20B687"/>
<path d="M37.9901 34.9885C38.677 34.9885 39.1922 34.4734 39.1922 33.8322C39.1922 33.1911 38.677 32.6759 37.9901 32.6759C37.3146 32.6759 36.8223 33.1911 36.8223 33.8322C36.8223 34.4734 37.3146 34.9885 37.9901 34.9885Z" fill="#20B687"/>
<path d="M42.9278 35C44.8626 35 45.8815 34.0154 45.9388 32.5042H44.0956C44.0269 33.1568 43.6262 33.5002 43.0537 33.5002C42.2752 33.5002 41.8745 32.9621 41.8745 31.9203V31.8287C41.8745 30.8213 42.2981 30.3061 43.0194 30.3061C43.6147 30.3061 43.8895 30.6152 43.9811 31.1762H45.9044C45.79 29.3558 44.439 28.7147 42.9736 28.7147C41.2105 28.7147 39.7794 29.8596 39.7794 31.8516V31.9432C39.7794 33.9582 41.1418 35 42.9278 35Z" fill="#20B687"/>
<path d="M49.7398 33.4773C48.9499 33.4773 48.5492 32.9163 48.5492 31.886V31.7944C48.5492 30.7869 48.9728 30.2488 49.7398 30.2488C50.5183 30.2488 50.919 30.8098 50.919 31.8173V31.9089C50.919 32.9049 50.5069 33.4773 49.7398 33.4773ZM49.7284 35C51.5716 35 53.0027 33.8322 53.0027 31.886V31.7944C53.0027 29.8939 51.583 28.7147 49.7398 28.7147C47.8851 28.7147 46.4541 29.9283 46.4541 31.8516V31.9432C46.4541 33.878 47.8851 35 49.7284 35Z" fill="#20B687"/>
<path d="M53.8965 34.8626H55.9458V31.3937C55.9458 30.7411 56.3121 30.3862 56.8616 30.3862C57.331 30.3862 57.6287 30.6839 57.6287 31.2906V34.8626H59.6551V31.3937C59.6551 30.7411 60.0215 30.3862 60.571 30.3862C61.0404 30.3862 61.338 30.6839 61.338 31.2906V34.8626H63.3873V30.9472C63.3873 29.4474 62.563 28.7147 61.4296 28.7147C60.674 28.7147 59.9642 29.0124 59.449 29.7107C59.1628 29.0582 58.6133 28.7147 57.8233 28.7147C56.896 28.7147 56.2663 29.2184 55.9458 29.7909V28.875H53.8965V34.8626Z" fill="#20B687"/>
</svg>
