<svg width="65" height="31" viewBox="0 0 65 31" fill="none" xmlns="http://www.w3.org/2000/svg">
<path d="M12.3086 17.6371H15.8536L10.1948 2.35602H5.7029L0 17.6371H3.47899L4.80012 13.8499H11.0095L12.3086 17.6371ZM5.76895 11.0755L7.79469 5.28454H8.05892L10.0406 11.0755H5.76895Z" fill="#260126"/>
<path d="M17.5845 17.6371H20.9314V2.35602H17.5845V17.6371Z" fill="#260126"/>
<path d="M34.7959 16.6683V14.0701H42.0181V5.7029H34.7959V3.56706H42.5906V0.902775H31.9995V15.5894C31.2068 14.5105 30.1719 13.2334 29.2912 12.1985C29.3792 11.7581 29.4453 11.3177 29.5114 10.8773H31.5371V8.21305H29.6214V5.13041H31.383V2.55419H27.6177C27.7939 1.91564 27.926 1.23306 28.0801 0.506435L25.636 0.0440386C25.2837 2.17987 24.3809 4.82214 23.324 6.7598L25.6801 7.64056C26.1204 6.69375 26.4727 5.90107 26.803 5.13041H27.0232V8.21305H23.7644V10.8773H26.9351C26.5828 13.6077 25.3057 15.8096 23.0158 18.0115L25.1076 20.0592C26.5828 18.4959 27.6397 16.8885 28.3664 15.149C29.137 16.1178 29.8637 17.1747 30.3701 17.9014L31.9995 16.294V19.3326H42.9649V16.6683H34.7959ZM39.3318 8.32315V11.4498H34.7959V8.32315H39.3318Z" fill="#260126"/>
<path d="M64.904 13.4756H60.4782V11.3618H63.9792V8.74151H60.4782V5.81299L57.88 5.68088V8.74151H56.2065C56.6689 8.0369 57.3075 6.60567 57.902 5.02031H64.3315V2.35602H58.8488C59.091 1.65142 59.2892 0.968832 59.4433 0.374322L56.735 0C56.5588 0.704605 56.3386 1.49729 56.0524 2.35602H53.3441V5.02031H55.1056C54.467 6.60567 53.7844 8.08094 53.1899 8.98371V11.3618H57.88V13.4756H53.1899V16.0958H57.88V19.751H60.4782V16.0958H64.904V13.4756ZM46.1879 19.6409H48.5219V3.41293H50.4376C50.0192 5.10839 49.5128 6.84788 48.8742 8.58737C50.1073 10.2388 50.3935 11.5159 50.3935 12.6389C50.3935 13.6737 50.0412 13.9159 49.2706 14.0701L48.61 14.1802L49.4467 16.7344L50.0632 16.6463C52.5073 16.294 52.7716 15.6554 52.7716 13.1673C52.7716 11.3618 52.3532 9.99658 51.2302 8.0369C51.8468 6.47356 52.3532 4.99829 52.7936 3.43495V0.836719H46.1879V19.6409Z" fill="#260126"/>
<path d="M13.0483 30.8265C13.8575 30.8265 14.3006 30.4893 14.5414 30.1233V30.7109H16.2176V27.4452C16.2176 26.1062 15.3313 25.5378 13.9442 25.5378C12.5666 25.5378 11.6129 26.1351 11.5358 27.3489H13.1542C13.1928 27.031 13.3662 26.7516 13.8382 26.7516C14.3873 26.7516 14.5029 27.0695 14.5029 27.5512V27.6668H14.0212C12.345 27.6668 11.3432 28.1292 11.3432 29.3141C11.3432 30.3834 12.1427 30.8265 13.0483 30.8265ZM13.6455 29.6609C13.2409 29.6609 13.0483 29.4778 13.0483 29.1888C13.0483 28.7746 13.3565 28.6397 14.0501 28.6397H14.5029V28.948C14.5029 29.3815 14.1368 29.6609 13.6455 29.6609Z" fill="#20B687"/>
<path d="M17.7312 30.7109H19.4556V25.6727H17.7312V30.7109ZM18.5886 25.191C19.1281 25.191 19.5423 24.8153 19.5423 24.3048C19.5423 23.7942 19.1281 23.4089 18.5886 23.4089C18.0491 23.4089 17.6445 23.7942 17.6445 24.3048C17.6445 24.8153 18.0491 25.191 18.5886 25.191Z" fill="#20B687"/>
<path d="M20.6012 30.7109H22.3641L23.2792 29.2081L24.1751 30.7109H26.1596L24.416 28.0136L26.0055 25.6727H24.2329L23.4719 27.0021L22.6916 25.6727H20.7072L22.2774 28.1484L20.6012 30.7109Z" fill="#20B687"/>
<path d="M27.2637 30.7109H28.988V28.3218C28.988 27.5126 29.566 27.1851 30.616 27.214V25.6053C29.8357 25.5956 29.3059 25.9232 28.988 26.6746V25.6727H27.2637V30.7109Z" fill="#20B687"/>
<path d="M32.2071 30.8169C32.7851 30.8169 33.2186 30.3834 33.2186 29.8439C33.2186 29.3044 32.7851 28.8709 32.2071 28.8709C31.6387 28.8709 31.2245 29.3044 31.2245 29.8439C31.2245 30.3834 31.6387 30.8169 32.2071 30.8169Z" fill="#20B687"/>
<path d="M36.8436 30.8265C38.4716 30.8265 39.3289 29.998 39.3771 28.7264H37.8262C37.7684 29.2755 37.4312 29.5645 36.9495 29.5645C36.2945 29.5645 35.9573 29.1118 35.9573 28.2351V28.1581C35.9573 27.3103 36.3137 26.8769 36.9206 26.8769C37.4216 26.8769 37.6528 27.137 37.7298 27.609H39.3482C39.2519 26.0773 38.1152 25.5378 36.8821 25.5378C35.3986 25.5378 34.1944 26.5012 34.1944 28.1773V28.2544C34.1944 29.9499 35.3408 30.8265 36.8436 30.8265Z" fill="#20B687"/>
<path d="M43.0571 29.5453C42.3924 29.5453 42.0552 29.0732 42.0552 28.2062V28.1292C42.0552 27.2814 42.4117 26.8287 43.0571 26.8287C43.7122 26.8287 44.0493 27.3007 44.0493 28.1484V28.2255C44.0493 29.0636 43.7025 29.5453 43.0571 29.5453ZM43.0475 30.8265C44.5984 30.8265 45.8026 29.8439 45.8026 28.2062V28.1292C45.8026 26.5301 44.6081 25.5378 43.0571 25.5378C41.4965 25.5378 40.2923 26.559 40.2923 28.1773V28.2544C40.2923 29.8824 41.4965 30.8265 43.0475 30.8265Z" fill="#20B687"/>
<path d="M47.0363 30.7109H48.7607V27.792C48.7607 27.2429 49.0689 26.9443 49.5313 26.9443C49.9263 26.9443 50.1768 27.1948 50.1768 27.7053V30.7109H51.8819V27.792C51.8819 27.2429 52.1901 26.9443 52.6525 26.9443C53.0475 26.9443 53.2979 27.1948 53.2979 27.7053V30.7109H55.0223V27.4163C55.0223 26.1544 54.3287 25.5378 53.375 25.5378C52.7392 25.5378 52.1419 25.7883 51.7084 26.3759C51.4676 25.8268 51.0052 25.5378 50.3405 25.5378C49.5602 25.5378 49.0304 25.9617 48.7607 26.4434V25.6727H47.0363V30.7109Z" fill="#20B687"/>
</svg>
