<svg width="158" height="77" viewBox="0 0 158 77" fill="none" xmlns="http://www.w3.org/2000/svg">
<path d="M29.9117 42.861H38.5267L24.7748 5.7255H13.8589L0 42.861H8.45447L11.665 33.6574H26.7547L29.9117 42.861ZM14.0194 26.9152L18.9423 12.8422H19.5844L24.4002 26.9152H14.0194Z" fill="#260126"/>
<path d="M42.733 42.861H50.8664V5.7255H42.733V42.861Z" fill="#260126"/>
<path d="M84.5593 40.5065V34.1925H102.11V13.8589H84.5593V8.66851H103.502V2.19388H77.7636V37.8846C75.8373 35.2626 73.3224 32.1591 71.182 29.6442C71.396 28.574 71.5566 27.5038 71.7171 26.4336H76.64V19.959H71.9846V12.4677H76.2654V6.20708H67.1153C67.5434 4.65531 67.8644 2.99652 68.239 1.23071L62.2995 0.10702C61.4433 5.29742 59.2494 11.7185 56.681 16.4274L62.4065 18.5677C63.4767 16.2668 64.3328 14.3405 65.1355 12.4677H65.6705V19.959H57.7512V26.4336H65.4565C64.6004 33.0688 61.4968 38.4197 55.9319 43.7706L61.0152 48.747C64.6004 44.9478 67.1688 41.0416 68.9346 36.8144C70.8074 39.1688 72.5732 41.7373 73.804 43.5031L77.7636 39.5969V46.9812H104.411V40.5065H84.5593ZM95.5823 20.2265V27.8248H84.5593V20.2265H95.5823Z" fill="#260126"/>
<path d="M157.727 32.7477H146.971V27.6108H155.479V21.2432H146.971V14.1265L140.657 13.8054V21.2432H136.59C137.714 19.5309 139.266 16.0528 140.711 12.2001H156.335V5.7255H143.012C143.6 4.0132 144.082 2.35441 144.456 0.909659L137.875 0C137.447 1.7123 136.911 3.63863 136.216 5.7255H129.634V12.2001H133.915C132.363 16.0528 130.704 19.6379 129.26 21.8318V27.6108H140.657V32.7477H129.26V39.1153H140.657V47.9978H146.971V39.1153H157.727V32.7477ZM112.244 47.7303H117.916V8.29394H122.571C121.554 12.4142 120.324 16.6414 118.772 20.8686C121.768 24.8818 122.464 27.9854 122.464 30.7143C122.464 33.2293 121.608 33.8179 119.735 34.1925L118.13 34.46L120.163 40.6671L121.661 40.453C127.601 39.5969 128.243 38.0451 128.243 31.9986C128.243 27.6108 127.226 24.2932 124.497 19.5309C125.996 15.7317 127.226 12.1466 128.296 8.34745V2.03336H112.244V47.7303Z" fill="#260126"/>
<path d="M31.9168 63.8734C30.3718 63.8734 29.1544 64.1309 28.2648 64.6928C27.2114 65.3014 26.5559 66.2847 26.2984 67.6191L28.9437 67.8297C29.0842 67.1977 29.4353 66.7295 29.9504 66.4251C30.3952 66.1442 30.9804 66.0271 31.7296 66.0271C33.4619 66.0271 34.3281 66.7997 34.3281 68.3916V68.8598L31.6827 68.93C29.9035 68.9768 28.5223 69.3514 27.5391 70.0537C26.4622 70.7794 25.9472 71.8329 25.9472 73.1907C25.9472 74.1974 26.3218 75.0167 27.0709 75.6722C27.7966 76.3043 28.7799 76.632 30.044 76.632C31.0975 76.632 32.0105 76.4447 32.783 76.0936C33.4619 75.7658 34.0472 75.321 34.5154 74.7124V76.3043H36.9969V68.5789C36.9969 67.104 36.6223 65.9803 35.8732 65.2078C35.0304 64.3182 33.696 63.8734 31.9168 63.8734ZM34.3281 70.7794V71.3881C34.3281 72.3245 33.9535 73.0971 33.2512 73.7057C32.5489 74.291 31.6827 74.5953 30.6527 74.5953C30.0674 74.5953 29.5992 74.4315 29.2247 74.1505C28.8501 73.8696 28.6862 73.5185 28.6862 73.0971C28.6862 71.6456 29.7397 70.8965 31.87 70.8497L34.3281 70.7794Z" fill="#20B687"/>
<path d="M43.956 59.2616C43.4409 59.2616 43.0195 59.4254 42.6684 59.7532C42.3172 60.0809 42.1534 60.5023 42.1534 61.0173C42.1534 61.5324 42.3172 61.9538 42.6684 62.3049C43.0195 62.6327 43.4409 62.7965 43.956 62.7965C44.471 62.7965 44.8924 62.6327 45.2435 62.3049C45.5947 61.9772 45.782 61.5324 45.782 61.0173C45.782 60.5023 45.5947 60.0809 45.2669 59.7532C44.9158 59.4254 44.471 59.2616 43.956 59.2616ZM42.6216 64.2011V76.3043H45.2903V64.2011H42.6216Z" fill="#20B687"/>
<path d="M50.1922 64.2011L54.3593 69.8664L49.6538 76.3043H52.7908L55.8341 71.8329L58.8541 76.3043H61.9911L57.2856 69.8664L61.4526 64.2011H58.339L55.8341 67.9L53.3058 64.2011H50.1922Z" fill="#20B687"/>
<path d="M71.5684 63.8734C70.8193 63.8734 70.1872 64.0841 69.6488 64.5289C69.204 64.8566 68.8294 65.3248 68.5017 65.9335V64.2011H65.8563V76.3043H68.5017V69.8899C68.5017 68.8598 68.806 68.0404 69.4615 67.4084C70.0234 66.8465 70.6554 66.589 71.3577 66.589C71.9196 66.589 72.4814 66.6592 73.0901 66.8465V64.1777C72.6687 63.967 72.1537 63.8734 71.5684 63.8734Z" fill="#20B687"/>
<path d="M78.7559 72.7693C78.2409 72.7693 77.7961 72.9332 77.4684 73.3078C77.0938 73.6589 76.9299 74.1037 76.9299 74.6187C76.9299 75.1338 77.0938 75.5551 77.4684 75.9297C77.7961 76.2575 78.2409 76.4447 78.7559 76.4447C79.271 76.4447 79.6924 76.2575 80.0669 75.9297C80.4181 75.5551 80.6054 75.1338 80.6054 74.6187C80.6054 74.1037 80.4181 73.6589 80.0669 73.3078C79.6924 72.9332 79.271 72.7693 78.7559 72.7693Z" fill="#20B687"/>
<path d="M91.1726 63.8734C89.2763 63.8734 87.8015 64.5055 86.748 65.7696C85.7648 66.9167 85.2732 68.415 85.2732 70.241C85.2732 72.1138 85.7648 73.6355 86.7714 74.806C87.8015 76.0234 89.2529 76.632 91.1257 76.632C92.6942 76.632 93.9584 76.234 94.8948 75.4615C95.8546 74.6656 96.4867 73.4482 96.7676 71.8095H94.1223C93.9116 73.5653 92.9283 74.4549 91.1492 74.4549C90.1191 74.4549 89.3466 74.0803 88.8315 73.3546C88.2697 72.6054 88.0122 71.552 88.0122 70.2176C88.0122 68.9066 88.2931 67.8766 88.8549 67.1508C89.4168 66.4017 90.1893 66.0506 91.1726 66.0506C91.9685 66.0506 92.624 66.2378 93.1156 66.6124C93.5838 66.987 93.9116 67.5488 94.0754 68.3214H96.7208C96.4867 66.7997 95.878 65.676 94.9182 64.9269C93.9818 64.2246 92.7411 63.8734 91.1726 63.8734Z" fill="#20B687"/>
<path d="M106.823 63.8734C104.974 63.8734 103.499 64.4587 102.399 65.676C101.275 66.8699 100.737 68.3916 100.737 70.2644C100.737 72.1138 101.275 73.6355 102.376 74.806C103.499 76.0234 104.974 76.632 106.823 76.632C108.649 76.632 110.148 76.0234 111.271 74.806C112.348 73.6355 112.91 72.1138 112.91 70.2644C112.91 68.3916 112.348 66.8699 111.248 65.676C110.124 64.4587 108.649 63.8734 106.823 63.8734ZM106.823 66.0506C107.924 66.0506 108.79 66.4719 109.399 67.3615C109.914 68.1107 110.195 69.0939 110.195 70.2644C110.195 71.4115 109.914 72.3713 109.399 73.1439C108.79 74.0101 107.924 74.4549 106.823 74.4549C105.7 74.4549 104.857 74.0101 104.248 73.1439C103.733 72.3948 103.476 71.4349 103.476 70.2644C103.476 69.0939 103.733 68.1107 104.248 67.3615C104.857 66.4719 105.7 66.0506 106.823 66.0506Z" fill="#20B687"/>
<path d="M123.529 63.8734C122.359 63.8734 121.258 64.3884 120.252 65.4419V64.2011H117.583V76.3043H120.252V69.0471C120.252 68.2511 120.486 67.5488 120.954 66.987C121.422 66.3783 122.031 66.0974 122.804 66.0974C124.395 66.0974 125.191 67.0104 125.191 68.8598V76.3043H127.86V68.9066C127.86 68.017 128.071 67.3381 128.539 66.8465C128.984 66.3315 129.522 66.0974 130.178 66.0974C131.114 66.0974 131.77 66.3081 132.191 66.7529C132.589 67.1743 132.8 67.8766 132.8 68.8364V76.3043H135.469V68.3682C135.469 67.0338 135.047 65.9569 134.251 65.1141C133.408 64.2714 132.378 63.8734 131.138 63.8734C130.318 63.8734 129.639 64.0139 129.101 64.2948C128.492 64.5757 127.907 65.0907 127.345 65.8399C126.573 64.5289 125.308 63.8734 123.529 63.8734Z" fill="#20B687"/>
</svg>
