<svg width="68" height="31" viewBox="0 0 68 31" fill="none" xmlns="http://www.w3.org/2000/svg">
<path d="M12.8775 18.4524H16.5864L10.666 2.46492H5.9665L0 18.4524H3.63979L5.02199 14.4901H11.5183L12.8775 18.4524ZM6.03561 11.5874L8.15498 5.5288H8.43142L10.5047 11.5874H6.03561Z" fill="#260126"/>
<path d="M18.3973 18.4524H21.8989V2.46492H18.3973V18.4524Z" fill="#260126"/>
<path d="M36.4042 17.4388V14.7204H43.9603V5.9665H36.4042V3.73194H44.5592V0.944504H33.4786V16.31C32.6493 15.1812 31.5665 13.845 30.6451 12.7623C30.7372 12.3016 30.8063 11.8408 30.8754 11.3801H32.9948V8.59268H30.9906V5.36754H32.8335V2.67225H28.8943C29.0786 2.00419 29.2168 1.29005 29.378 0.529843L26.821 0.0460741C26.4524 2.28063 25.5079 5.04503 24.4021 7.07226L26.8671 7.99372C27.3278 7.00315 27.6964 6.17383 28.0419 5.36754H28.2723V8.59268H24.8629V11.3801H28.1801C27.8116 14.2367 26.4754 16.5403 24.0796 18.844L26.2681 20.9864C27.8116 19.3508 28.9173 17.6691 29.6775 15.8492C30.4838 16.8628 31.244 17.9686 31.7739 18.7288L33.4786 17.0471V20.2262H44.9508V17.4388H36.4042ZM41.1498 8.70786V11.9791H36.4042V8.70786H41.1498Z" fill="#260126"/>
<path d="M67.904 14.0984H63.2736V11.8869H66.9365V9.14556H63.2736V6.08168L60.5553 5.94346V9.14556H58.8045C59.2883 8.40838 59.9563 6.911 60.5783 5.25236H67.305V2.46492H61.5689C61.8223 1.72775 62.0296 1.01361 62.1909 0.391624L59.3574 0C59.1731 0.737173 58.9427 1.56649 58.6432 2.46492H55.8097V5.25236H57.6527C56.9846 6.911 56.2705 8.45446 55.6485 9.39896V11.8869H60.5553V14.0984H55.6485V16.8398H60.5553V20.6639H63.2736V16.8398H67.904V14.0984ZM48.3228 20.5487H50.7647V3.57068H52.7689C52.3312 5.34451 51.8014 7.1644 51.1333 8.9843C52.4233 10.7121 52.7228 12.0482 52.7228 13.223C52.7228 14.3058 52.3542 14.5592 51.548 14.7204L50.8569 14.8356L51.7322 17.5079L52.3773 17.4157C54.9343 17.0471 55.2108 16.3791 55.2108 13.7759C55.2108 11.8869 54.7731 10.4586 53.5982 8.40839C54.2432 6.77278 54.7731 5.22932 55.2338 3.59372V0.875394H48.3228V20.5487Z" fill="#260126"/>
<path d="M13.6514 30.8116C14.498 30.8116 14.9616 30.4588 15.2135 30.0758V30.6906H16.9672V27.274C16.9672 25.8731 16.04 25.2784 14.5887 25.2784C13.1474 25.2784 12.1497 25.9033 12.069 27.1732H13.7622C13.8025 26.8406 13.984 26.5483 14.4778 26.5483C15.0523 26.5483 15.1732 26.8809 15.1732 27.3849V27.5058H14.6693C12.9156 27.5058 11.8675 27.9896 11.8675 29.2292C11.8675 30.348 12.704 30.8116 13.6514 30.8116ZM14.2762 29.5921C13.8529 29.5921 13.6514 29.4006 13.6514 29.0982C13.6514 28.6648 13.9739 28.5237 14.6995 28.5237H15.1732V28.8462C15.1732 29.2998 14.7902 29.5921 14.2762 29.5921Z" fill="#20B687"/>
<path d="M18.5508 30.6906H20.3549V25.4195H18.5508V30.6906ZM19.4478 24.9156C20.0122 24.9156 20.4456 24.5226 20.4456 23.9884C20.4456 23.4542 20.0122 23.0511 19.4478 23.0511C18.8834 23.0511 18.4601 23.4542 18.4601 23.9884C18.4601 24.5226 18.8834 24.9156 19.4478 24.9156Z" fill="#20B687"/>
<path d="M21.5534 30.6906H23.3978L24.3552 29.1184L25.2926 30.6906H27.3687L25.5445 27.8686L27.2075 25.4195H25.353L24.5568 26.8104L23.7405 25.4195H21.6643L23.3071 28.0097L21.5534 30.6906Z" fill="#20B687"/>
<path d="M28.5238 30.6906H30.3279V28.1911C30.3279 27.3445 30.9326 27.0019 32.0312 27.0321V25.349C31.2148 25.3389 30.6605 25.6816 30.3279 26.4677V25.4195H28.5238V30.6906Z" fill="#20B687"/>
<path d="M33.6958 30.8015C34.3005 30.8015 34.754 30.348 34.754 29.7836C34.754 29.2192 34.3005 28.7656 33.6958 28.7656C33.1011 28.7656 32.6678 29.2192 32.6678 29.7836C32.6678 30.348 33.1011 30.8015 33.6958 30.8015Z" fill="#20B687"/>
<path d="M38.5465 30.8116C40.2498 30.8116 41.1468 29.9448 41.1972 28.6144H39.5746C39.5141 29.1889 39.1613 29.4913 38.6574 29.4913C37.9721 29.4913 37.6193 29.0176 37.6193 28.1004V28.0198C37.6193 27.1329 37.9922 26.6794 38.6272 26.6794C39.1513 26.6794 39.3931 26.9515 39.4738 27.4453H41.167C41.0662 25.8428 39.8769 25.2784 38.5869 25.2784C37.0348 25.2784 35.7749 26.2863 35.7749 28.04V28.1206C35.7749 29.8944 36.9743 30.8116 38.5465 30.8116Z" fill="#20B687"/>
<path d="M45.0473 29.4711C44.3519 29.4711 43.9991 28.9773 43.9991 28.0702V27.9896C43.9991 27.1027 44.372 26.629 45.0473 26.629C45.7326 26.629 46.0854 27.1228 46.0854 28.0097V28.0904C46.0854 28.9672 45.7225 29.4711 45.0473 29.4711ZM45.0372 30.8116C46.6598 30.8116 47.9197 29.7836 47.9197 28.0702V27.9896C47.9197 26.3165 46.6699 25.2784 45.0473 25.2784C43.4146 25.2784 42.1547 26.3468 42.1547 28.04V28.1206C42.1547 29.8239 43.4146 30.8116 45.0372 30.8116Z" fill="#20B687"/>
<path d="M49.2104 30.6906H51.0145V27.6368C51.0145 27.0623 51.337 26.7499 51.8208 26.7499C52.234 26.7499 52.496 27.012 52.496 27.5461V30.6906H54.2799V27.6368C54.2799 27.0623 54.6024 26.7499 55.0862 26.7499C55.4994 26.7499 55.7615 27.012 55.7615 27.5461V30.6906H57.5655V27.2438C57.5655 25.9235 56.8399 25.2784 55.8421 25.2784C55.1769 25.2784 54.552 25.5405 54.0985 26.1553C53.8465 25.5808 53.3628 25.2784 52.6674 25.2784C51.851 25.2784 51.2967 25.7219 51.0145 26.2258V25.4195H49.2104V30.6906Z" fill="#20B687"/>
</svg>
